<!DOCTYPE svg PUBLIC "-//W3C//DTD SVG 1.1//EN" "http://www.w3.org/Graphics/SVG/1.1/DTD/svg11.dtd">
<svg height="500.0pt" stroke-miterlimit="10" style="fill-rule:nonzero;clip-rule:evenodd;stroke-linecap:round;stroke-linejoin:round;" version="1.1" viewBox="0 0 500 500" width="500.0pt" xml:space="preserve" xmlns="http://www.w3.org/2000/svg" xmlns:xlink="http://www.w3.org/1999/xlink" xmlns:svg="http://www.w3.org/2000/svg">
<g id="Ebene-1">
<path d="M239.524 107.312C258.095 107.312 258.095 107.312 276.667 107.312C276.667 145.736 276.667 145.736 276.667 184.16C257.872 168.062 244.06 152.589 221.833 142.814C172.175 120.976 102.043 143.026 79.2639 193.766C52.7177 252.896 51.2355 320.37 61.2927 383.444C63.6986 398.533 72.1347 423.047 80.7048 437.118C107.166 480.562 147.291 496.296 197.257 491.872C204.626 491.219 212.047 489.617 218.831 486.668C247.551 474.185 252.448 465.688 275.386 444.162C276.027 464.655 276.027 464.655 276.667 485.148C360.559 485.148 360.559 485.148 444.452 485.148C444.452 434.556 444.452 434.556 444.452 383.964C431.003 383.964 431.003 383.964 417.555 383.964C417.555 195.687 417.555 195.687 417.555 7.40971C328.539 7.40971 328.539 7.40971 239.524 7.40971C239.524 57.3609 239.524 57.3609 239.524 107.312ZM240.805 244.357C283.684 245.141 275.476 277.531 275.386 314.161C275.315 343.253 279.324 383.615 240.164 383.964C206.971 384.261 205.549 358.42 205.463 331.051C205.405 312.77 205.837 294.485 206.543 276.217C207.454 252.654 219.545 243.969 240.805 244.357Z" fill="#000000" fill-rule="nonzero" opacity="1" stroke="none"/>
</g>
</svg>
