<?xml version="1.0" encoding="UTF-8" standalone="no"?>
<!DOCTYPE svg PUBLIC "-//W3C//DTD SVG 1.1//EN" "http://www.w3.org/Graphics/SVG/1.1/DTD/svg11.dtd">
<!-- Created with Vectornator (http://vectornator.io/) -->
<svg height="1024.0px" stroke-miterlimit="10" style="fill-rule:nonzero;clip-rule:evenodd;stroke-linecap:round;stroke-linejoin:round;" version="1.1" viewBox="0 0 1024 1024" width="1024.0px" xml:space="preserve" xmlns="http://www.w3.org/2000/svg" xmlns:xlink="http://www.w3.org/1999/xlink">
<defs/>
<clipPath id="ArtboardFrame">
<rect height="1024" width="1024" x="0" y="0"/>
</clipPath>
<g clip-path="url(#ArtboardFrame)" id="Ebene-1">
<path d="M462.691 1016.6C478.452 996.07 492.141 973.882 504.579 951.198C512.045 937.583 516.41 922.38 524.015 908.926C537.324 885.381 551.959 862.752 565.285 839.219C573.781 824.217 584.322 810.034 591.74 794.448C592.496 792.858 595.3 787.712 596.179 785.041C596.33 784.583 597.292 781.332 597.81 781.332" fill="none" opacity="1" stroke="#ffffff" stroke-linecap="round" stroke-linejoin="round" stroke-width="25"/>
<path d="M601.285 777.836C616.963 801.176 636.045 822.123 651.737 845.385C660.472 858.333 669.259 871.83 676.582 885.621C682.731 897.2 687.884 909.476 694.489 920.779C701.932 933.516 709.797 946.227 716.696 959.363C724.449 974.126 730.568 989.75 738.482 1004.4C739.007 1005.37 744.962 1016.8 745.229 1016.8" fill="none" opacity="1" stroke="#ffffff" stroke-linecap="round" stroke-linejoin="round" stroke-width="25"/>
<path d="M598.22 768.164C596.251 744.807 588.168 722.643 586.634 699.144C586.156 691.815 586.67 684.408 586.235 677.086C585.916 671.712 585.106 666.253 585.585 660.837C588.195 631.299 592.304 602 593.371 572.338C594.516 540.493 594.027 508.213 592.166 476.411C591.42 463.661 592.196 451.046 593.712 438.711C594.236 434.447 593.461 430.035 593.33 425.769" fill="none" opacity="1" stroke="#ffffff" stroke-linecap="round" stroke-linejoin="round" stroke-width="25"/>
<path d="M500.566 324.201C500.566 327.785 502.441 330.997 503.806 334.225C509.801 348.394 521.213 360.407 533.773 369.137C546.472 377.964 562.21 384.712 577.772 385.792C587.269 386.45 597.21 385.792 606.726 385.792C620.009 385.792 636.893 383.255 646.211 372.484C654.719 362.648 656.319 349.933 662.406 338.936C666.336 331.838 672.095 324.943 674.419 317.033C676.496 309.964 675.491 301.934 674.877 294.751C674.787 293.703 675.221 293.808 674.563 293.808" fill="none" opacity="1" stroke="#ffffff" stroke-linecap="round" stroke-linejoin="round" stroke-width="25"/>
<path d="M521.009 193.801C518.789 194.205 517.089 191.505 514.955 190.771C514.742 190.698 501.504 198.628 511.657 201.59C514.983 202.56 515.691 202.565 518.99 203.098C520.93 203.411 526.688 205.288 527.405 202.08C529.224 193.938 506.498 193.313 509.189 200.087C510.273 202.816 520.518 200.768 522.811 199.591C523.624 199.174 525.509 198.552 524.926 197.848C522.581 195.012 522.714 193.49 521.009 193.801Z" fill="none" opacity="1" stroke="#ffffff" stroke-linecap="round" stroke-linejoin="round" stroke-width="25"/>
<path d="M651.46 122.492C647.553 118.585 637.867 117.907 632.994 116.715C611.601 111.484 589.364 108.428 567.449 106.179C551.228 104.515 533.791 101.879 517.481 104.436C509.357 105.71 501.42 110.414 494.331 114.258C480.956 121.512 469.773 129.973 457.692 139.231C423.613 165.35 396.879 198.024 384.35 239.865C379.992 254.418 379.932 269.983 379.335 285.164C378.603 303.802 385.281 322.572 394.636 338.451C401.453 350.024 411.477 359.994 421.602 368.658C457.608 399.466 498.736 415.656 543.915 427.445C579.598 436.757 617.679 440.863 653.794 430.941C677.538 424.418 699.474 408.583 718.199 393.247C735.702 378.912 751.049 358.597 758.153 337.028C771.624 296.129 762.806 254.823 752.53 214.593C747.871 196.352 743.81 174.745 733.691 158.412C713.474 125.778 678.922 103.749 640.125 103.749" fill="none" opacity="1" stroke="#ffffff" stroke-linecap="round" stroke-linejoin="round" stroke-width="20"/>
<path d="M634.417 198.36C634.108 190.761 627.894 189.989 621.019 191.277C619.242 191.61 612.666 191.375 613.478 194.624C614.86 200.151 631.823 203.63 633.628 198.12C634.735 194.743 628.819 191.835 628.283 196.516C628.033 198.698 630.853 207.804 633.847 203.236C634.903 201.625 634.428 198.62 634.417 198.36Z" fill="none" opacity="1" stroke="#ffffff" stroke-linecap="round" stroke-linejoin="round" stroke-width="25"/>
<path d="M582.078 590.957C581.264 589.327 578.356 589.544 577.068 589.188C572.373 587.888 567.777 586.245 563.08 584.953C550.46 581.48 537.668 578.645 524.866 575.918C508.747 572.484 492.339 570.546 476.177 567.315C450.709 562.225 426.692 554.115 402.866 544.021C394.449 540.455 384.669 535.345 375.584 532.553C372.896 531.727 367.381 531.454 367.381 529.707" fill="none" opacity="1" stroke="#ffffff" stroke-linecap="round" stroke-linejoin="round" stroke-width="25"/>
<path d="M597.666 595.596C611.917 587.946 627.936 583.109 642.948 577.245C672.57 565.675 701.586 552.365 730.309 538.751C741.915 533.25 754.004 528.085 765.282 521.93C766.047 521.513 777.971 513.443 779.86 513.443" fill="none" opacity="1" stroke="#ffffff" stroke-linecap="round" stroke-linejoin="round" stroke-width="25"/>
<path d="M394.553 600.631C394.553 591.383 388.693 583.261 388.693 575.089" fill="none" opacity="1" stroke="#ffffff" stroke-linecap="round" stroke-linejoin="round" stroke-width="25"/>
<path d="M370.173 490.92C369.192 485.753 366.51 481.101 365.641 475.889C364.355 468.17 366.104 458.142 361.748 451.608C360.644 449.951 359.311 447.21 358.829 445.282C358.713 444.817 358.414 441.876 358.099 441.876" fill="none" opacity="1" stroke="#ffffff" stroke-linecap="round" stroke-linejoin="round" stroke-width="25"/>
<path d="M352.775 419.942C341.202 421.968 329.494 423.355 317.872 425.122C313.413 425.799 308.91 426.449 304.614 427.823C302.054 428.641 299.431 429.256 296.812 429.864C295.564 430.154 290.586 432.304 290.586 431.662C290.586 429.721 290.5 427.778 290.586 425.839C290.683 423.629 291.037 421.435 291.134 419.225C291.22 417.286 291.206 415.342 291.134 413.402C291.021 410.351 290.911 407.295 290.581 404.26C289.922 398.184 288.062 391.925 286.384 386.049C286.223 385.488 284.348 381.165 284.68 380.94C287.166 379.264 292.151 378.528 295.447 377.678C298.729 376.833 302.055 376.166 305.373 375.48C316.01 373.282 325.24 369.427 336.037 369.427C337.076 369.427 339.333 368.953 340.28 369.427C341.24 369.906 341.543 371.894 342.194 372.544C342.615 372.966 345.883 371.804 346.47 371.505C351.15 369.125 357.302 370.095 362.301 368.829C363.934 368.415 365.476 368.372 367.097 368.099C367.596 368.015 368.376 367.132 368.536 367.612C369.413 370.242 369.076 374.631 369.464 377.315C370.585 385.082 371.6 392.659 371.6 400.466C371.6 401.116 372.558 406.382 371.839 407.089C369.848 409.046 365.141 409.976 362.821 411.208C356.57 414.526 350.319 419.043 343.423 421.076C334.27 423.774 324.673 424.581 315.179 424.581C312.857 424.581 302.057 425.389 300.697 424.029C300.322 423.654 300.697 421.434 300.697 420.915C300.697 419.153 300.068 417.093 300.454 415.369C300.837 413.654 302.245 412.25 303.616 411.151C311.802 404.591 318.991 401.244 329.254 399.839C331.887 399.479 334.769 399.839 337.443 399.839C338.312 399.839 339.181 399.839 340.049 399.839C340.595 399.839 342.232 399.839 341.687 399.839C333.884 399.839 326.224 400.438 318.433 400.837C317.964 400.861 317.467 400.99 317.023 400.837C315.736 400.393 318.467 398.47 319.513 397.6C322.758 394.902 326.889 394.631 330.148 392.433C330.512 392.188 324.345 392.974 324.458 392.973C326.589 392.955 330.705 391.2 332.157 390.882C336.246 389.989 340.352 389.16 344.487 388.507C349.677 387.688 354.924 387.278 360.144 386.68C362.77 386.38 365.425 386.34 368.037 385.938C369.213 385.757 370.199 385.067 371.361 384.899C371.765 384.841 372.564 384.248 372.561 384.656C372.546 386.336 368.056 389.32 366.746 390.058C364.191 391.497 361.682 393.041 359.002 394.231C356.048 395.543 352.884 396.356 349.736 397.089C345.933 397.974 339.608 398.73 335.468 397.579C331.577 396.498 328.385 392.798 324.619 391.542C322.252 390.754 316.985 392.495 313.963 392.495C312.763 392.495 311.563 392.495 310.363 392.495C309.714 392.495 307.768 392.495 308.416 392.495C321.715 392.495 335.384 390.665 348.713 390.066C356.855 389.7 366.021 389.734 373.926 387.076C375.358 386.595 377.665 385.657 378.445 384.334C378.613 384.05 380.009 380.817 380.12 380.928C381.319 382.127 380.009 384.324 380.12 386.016C380.356 389.623 381.431 394.185 382.99 397.303C383.76 398.844 383.946 400.412 384.664 401.847C385.031 402.582 385.665 404.797 385.86 404C386.577 401.068 381.387 392.925 380.986 389.262C379.859 378.987 379.786 374.025 375.501 365.456C374.974 364.402 370.731 362.876 369.662 361.806C369.09 361.234 366.649 361.806 365.753 361.806C363.299 361.806 360.841 361.653 358.392 361.806C355.565 361.983 352.735 362.103 349.905 362.235C347.915 362.328 345.943 362.672 343.955 362.784C340.864 362.957 338.01 363.014 335.035 363.501C334.592 363.574 332.644 363.46 332.359 363.74C331.897 364.194 334.545 367.402 334.965 368.062C336.433 370.368 336.957 373.115 337.212 375.823C337.762 381.649 338.07 387.255 338.07 393.101C338.07 394.048 337.647 395.095 338.07 395.942C340.785 401.372 342.798 406.845 344.524 412.874C346.064 418.255 348.093 423.211 348.672 428.66C348.888 430.691 348.911 433.13 348.911 435.175C348.911 435.912 349.284 438.061 349.39 437.332C350.503 429.689 349.262 421.636 349.262 413.955C349.262 412.297 348.359 406.231 349.806 404.759C350.203 404.355 350.728 405.466 351.006 405.959C353.161 409.769 354.032 414.075 354.895 418.305C355.67 422.106 355.85 426.242 357.064 429.901C358.265 433.524 360.957 437.03 360.957 440.631" fill="none" opacity="1" stroke="#ffffff" stroke-linecap="round" stroke-linejoin="round" stroke-width="25"/>
</g>
</svg>
