<?xml version="1.0" encoding="UTF-8" standalone="no"?>
<!DOCTYPE svg PUBLIC "-//W3C//DTD SVG 1.1//EN" "http://www.w3.org/Graphics/SVG/1.1/DTD/svg11.dtd">
<!-- Created with Vectornator (http://vectornator.io/) -->
<svg height="1024.0px" stroke-miterlimit="10" style="fill-rule:nonzero;clip-rule:evenodd;stroke-linecap:round;stroke-linejoin:round;" version="1.1" viewBox="0 0 1024 1024" width="1024.0px" xml:space="preserve" xmlns="http://www.w3.org/2000/svg" xmlns:xlink="http://www.w3.org/1999/xlink">
<defs/>
<clipPath id="ArtboardFrame">
<rect height="1024" width="1024" x="0" y="0"/>
</clipPath>
<g clip-path="url(#ArtboardFrame)" id="Ebene-1">
<path d="M462.691 1016.6C478.452 996.07 492.141 973.882 504.579 951.198C512.045 937.583 516.41 922.38 524.015 908.926C537.324 885.381 551.959 862.752 565.285 839.219C573.781 824.217 584.322 810.034 591.74 794.448C592.496 792.858 595.3 787.712 596.179 785.041C596.33 784.583 597.292 781.332 597.81 781.332" fill="none" opacity="1" stroke="#ffffff" stroke-linecap="round" stroke-linejoin="round" stroke-width="25"/>
<path d="M601.285 777.836C616.963 801.176 636.045 822.123 651.737 845.385C660.472 858.333 669.259 871.83 676.582 885.621C682.731 897.2 687.884 909.476 694.489 920.779C701.932 933.516 709.797 946.227 716.696 959.363C724.449 974.126 730.568 989.75 738.482 1004.4C739.007 1005.37 744.962 1016.8 745.229 1016.8" fill="none" opacity="1" stroke="#ffffff" stroke-linecap="round" stroke-linejoin="round" stroke-width="25"/>
<path d="M598.22 768.164C596.251 744.807 588.168 722.643 586.634 699.144C586.156 691.815 586.67 684.408 586.235 677.086C585.916 671.712 585.106 666.253 585.585 660.837C588.195 631.299 592.304 602 593.371 572.338C594.516 540.493 594.027 508.213 592.166 476.411C591.42 463.661 592.196 451.046 593.712 438.711C594.236 434.447 593.461 430.035 593.33 425.769" fill="none" opacity="1" stroke="#ffffff" stroke-linecap="round" stroke-linejoin="round" stroke-width="25"/>
<path d="M521.009 193.801C518.789 194.205 517.089 191.505 514.955 190.771C514.742 190.698 501.504 198.628 511.657 201.59C514.983 202.56 515.691 202.565 518.99 203.098C520.93 203.411 526.688 205.288 527.405 202.08C529.224 193.938 506.498 193.313 509.189 200.087C510.273 202.816 520.518 200.768 522.811 199.591C523.624 199.174 525.509 198.552 524.926 197.848C522.581 195.012 522.714 193.49 521.009 193.801Z" fill="none" opacity="1" stroke="#ffffff" stroke-linecap="round" stroke-linejoin="round" stroke-width="25"/>
<path d="M651.46 122.492C647.553 118.585 637.867 117.907 632.994 116.715C611.601 111.484 589.364 108.428 567.449 106.179C551.228 104.515 533.791 101.879 517.481 104.436C509.357 105.71 501.42 110.414 494.331 114.258C480.956 121.512 469.773 129.973 457.692 139.231C423.613 165.35 396.879 198.024 384.35 239.865C379.992 254.418 379.932 269.983 379.335 285.164C378.603 303.802 385.281 322.572 394.636 338.451C401.453 350.024 411.477 359.994 421.602 368.658C457.608 399.466 498.736 415.656 543.915 427.445C579.598 436.757 617.679 440.863 653.794 430.941C677.538 424.418 699.474 408.583 718.199 393.247C735.702 378.912 751.049 358.597 758.153 337.028C771.624 296.129 762.806 254.823 752.53 214.593C747.871 196.352 743.81 174.745 733.691 158.412C713.474 125.778 678.922 103.749 640.125 103.749" fill="none" opacity="1" stroke="#ffffff" stroke-linecap="round" stroke-linejoin="round" stroke-width="20"/>
<path d="M634.417 198.36C634.108 190.761 627.894 189.989 621.019 191.277C619.242 191.61 612.666 191.375 613.478 194.624C614.86 200.151 631.823 203.63 633.628 198.12C634.735 194.743 628.819 191.835 628.283 196.516C628.033 198.698 630.853 207.804 633.847 203.236C634.903 201.625 634.428 198.62 634.417 198.36Z" fill="none" opacity="1" stroke="#ffffff" stroke-linecap="round" stroke-linejoin="round" stroke-width="25"/>
<path d="M582.078 590.957C581.264 589.327 578.356 589.544 577.068 589.188C572.373 587.888 567.777 586.245 563.08 584.953C550.46 581.48 537.668 578.645 524.866 575.918C508.747 572.484 492.339 570.546 476.177 567.315C450.709 562.225 426.692 554.115 402.866 544.021C394.449 540.455 384.669 535.345 375.584 532.553C372.896 531.727 367.381 531.454 367.381 529.707" fill="none" opacity="1" stroke="#ffffff" stroke-linecap="round" stroke-linejoin="round" stroke-width="25"/>
<path d="M597.666 595.596C611.917 587.946 627.936 583.109 642.948 577.245C672.57 565.675 701.586 552.365 730.309 538.751C741.915 533.25 754.004 528.085 765.282 521.93C766.047 521.513 777.971 513.443 779.86 513.443" fill="none" opacity="1" stroke="#ffffff" stroke-linecap="round" stroke-linejoin="round" stroke-width="25"/>
<path d="M394.553 600.631C394.553 591.383 388.693 583.261 388.693 575.089" fill="none" opacity="1" stroke="#ffffff" stroke-linecap="round" stroke-linejoin="round" stroke-width="25"/>
<path d="M369.86 497.41C367.038 493.178 364.264 486.83 364.264 482.082" fill="none" opacity="1" stroke="#ffffff" stroke-linecap="round" stroke-linejoin="round" stroke-width="25"/>
<path d="M328.829 443.781C325.307 443.781 321.98 445.075 318.289 444.804C305.254 443.849 292.197 441.671 279.315 440.206C272.274 439.406 265.268 439.385 258.425 438.016C257.821 437.896 253.072 437.895 253.072 437.53" fill="none" opacity="1" stroke="#ffffff" stroke-linecap="round" stroke-linejoin="round" stroke-width="25"/>
<path d="M251.299 389.72C244.003 405.809 236.838 421.108 234.726 438.948C233.628 448.217 233.952 457.234 231.674 466.19C231.441 467.107 229.773 474.782 229.485 474.841C216.525 477.497 205.079 472.378 193.188 468.177C188.342 466.465 183.617 465.658 178.544 465.658C177.648 465.658 173.904 466.253 173.146 465.658C172.945 465.499 173.271 465.157 173.386 464.928C174.414 462.883 175.529 460.883 176.573 458.845C177.428 457.178 178.282 455.509 179.08 453.814C183.518 444.396 186.521 434.532 190.911 425.109C196.118 413.933 199.483 401.922 203.786 390.404C204.295 389.04 206.862 381.757 209.01 381.744C210.908 381.733 217.829 385.167 218.986 385.427C224.47 386.659 230.512 387.96 236.074 388.808C238.069 389.113 242.919 389.782 244.841 388.804C245.847 388.293 246.17 386.037 246.342 385.204C246.426 384.799 246.995 383.99 246.581 383.988C243.411 383.97 241.732 388.103 239.608 390.458C235.937 394.529 232.609 398.899 229.204 403.196C215.014 421.107 207.606 440.061 206.619 463.01C206.487 466.067 206.048 475.198 208.796 477.946C208.852 478.003 208.987 478.01 209.035 477.946C210.531 475.976 211.892 473.906 213.369 471.922C214.799 470 216.058 467.95 217.221 465.856C219.594 461.579 222.222 457.443 224.482 453.105C229.84 442.824 227.828 435.253 223.843 425.27C222.628 422.226 221.2 419.463 220.891 416.14C220.508 412.028 220.668 407.311 220.891 403.262C220.971 401.803 221.191 400.355 221.32 398.899C221.341 398.657 221.43 397.952 221.32 398.169C215.761 409.097 209.071 419.038 206.029 431.109C204.867 435.719 203.786 439.865 203.315 444.445C203.166 445.904 201.965 450.602 202.577 449.979" fill="none" opacity="1" stroke="#ffffff" stroke-linecap="round" stroke-linejoin="round" stroke-width="25"/>
<path d="M380.97 561.796C381.977 563.444 381.964 566.243 382.28 568.15C382.36 568.633 382.907 569.15 382.907 569.599" fill="none" opacity="1" stroke="#ffffff" stroke-linecap="round" stroke-linejoin="round" stroke-width="18"/>
<path d="M384.228 563.287C385.079 563.854 385.409 565.071 386.26 565.709C386.956 566.231 388.437 565.547 388.889 565.999C389.414 566.524 390.672 569.667 390.672 570.358" fill="none" opacity="1" stroke="#ffffff" stroke-linecap="round" stroke-linejoin="round" stroke-width="18"/>
<path d="M375.699 501.576C375.699 503.077 377.002 504.719 377.002 506.042" fill="none" opacity="1" stroke="#ffffff" stroke-linecap="round" stroke-linejoin="round" stroke-width="18"/>
<path d="M370.167 497.852C369.861 499.057 370.303 499.386 370.647 500.418C371.035 501.583 370.485 502.989 370.485 504.164" fill="none" opacity="1" stroke="#ffffff" stroke-linecap="round" stroke-linejoin="round" stroke-width="18"/>
<path d="M499.356 365.143C508.837 329.911 550.842 313.707 584.299 318.113C599.685 320.14 615.108 327.844 628.443 335.276C638.946 341.129 645.816 350.595 653.767 358.547C655.254 360.034 660.267 366.04 661.677 366.04" fill="none" opacity="1" stroke="#ffffff" stroke-linecap="round" stroke-linejoin="round" stroke-width="25"/>
</g>
</svg>
